Coordinates
version=1
nRows=16
nColumns=63
inDegrees=yes

Units are S.I. units (second, meters, Newtons, ...)
If the header above contains a line with 'inDegrees', this indicates whether rotational values are in degrees (yes) or radians (no).

endheader
time	pelvis_tilt	pelvis_list	pelvis_rotation	pelvis_tx	pelvis_ty	pelvis_tz	hip_flexion_r	hip_adduction_r	hip_rotation_r	knee_angle_r	knee_angle_r_beta	ankle_angle_r	subtalar_angle_r	mtp_angle_r	hip_flexion_l	hip_adduction_l	hip_rotation_l	knee_angle_l	knee_angle_l_beta	ankle_angle_l	subtalar_angle_l	mtp_angle_l	L5_S1_Flex_Ext	L5_S1_Lat_Bending	L5_S1_axial_rotation	L4_L5_Flex_Ext	L4_L5_Lat_Bending	L4_L5_axial_rotation	L3_L4_Flex_Ext	L3_L4_Lat_Bending	L3_L4_axial_rotation	L2_L3_Flex_Ext	L2_L3_Lat_Bending	L2_L3_axial_rotation	L1_L2_Flex_Ext	L1_L2_Lat_Bending	L1_L2_axial_rotation	L1_T12_Flex_Ext	L1_T12_Lat_Bending	L1_T12_axial_rotation	Abs_r3	Abs_r2	Abs_r1	Abs_t1	Abs_t2	neck_flexion	neck_bending	neck_rotation	arm_flex_r	arm_add_r	arm_rot_r	elbow_flex_r	pro_sup_r	wrist_flex_r	wrist_dev_r	arm_flex_l	arm_add_l	arm_rot_l	elbow_flex_l	pro_sup_l	wrist_flex_l	wrist_dev_l
0.000000	1.479066	-4.168954	90.947530	-0.006960	0.959380	0.529671	0.099334	2.449731	-10.244556	0.359620	0.006277	6.629438	6.679656	0.000000	1.138223	-4.958664	14.187778	0.874506	0.015263	4.254887	-4.738107	0.000000	0.173970	0.361789	1.012839	0.323079	0.481180	1.076142	0.285815	0.879654	1.076142	0.198830	0.879654	0.886235	0.161548	0.737761	0.822932	0.099406	0.560412	0.759630	1.242647	4.092632	5.633109	0.000000	0.000000	27.687712	-1.590998	2.753372	16.636068	-7.635062	82.808797	43.341218	35.000406	-5.024846	5.396635	18.652588	-2.998360	67.898914	48.471577	60.713234	7.538786	16.553036
0.020000	1.708309	-4.064818	92.085218	-0.007614	0.959576	0.528519	0.035569	2.696017	-8.624791	0.325071	0.005674	7.298754	3.669228	0.000000	1.173766	-5.241176	14.726329	0.739565	0.012908	6.323239	-3.881599	0.000000	0.174862	0.376506	1.035874	0.324736	0.500753	1.100616	0.287281	0.915437	1.100616	0.199850	0.915437	0.906390	0.162377	0.767772	0.841648	0.099916	0.583208	0.776906	1.249021	4.259114	5.761222	0.000000	0.000000	27.789866	-2.632153	0.992969	15.484905	-7.763330	79.417871	44.740303	51.571108	-0.874481	6.975852	18.511320	-3.891049	69.153215	49.490417	61.765194	7.167531	17.448905
0.040000	1.911235	-3.932085	93.012312	-0.008108	0.959705	0.527600	-0.074134	2.923987	-7.299002	0.297019	0.005184	7.821209	1.233686	0.000000	1.146142	-5.494316	15.263032	0.622435	0.010864	7.966201	-3.335098	0.000000	0.171668	0.390857	1.049090	0.318804	0.519840	1.114658	0.282033	0.950330	1.114658	0.196199	0.950330	0.917954	0.159411	0.797036	0.852385	0.098091	0.605438	0.786817	1.226206	4.421456	5.834723	0.000000	0.000000	27.860388	-3.451429	-0.391622	14.583465	-7.886898	76.596386	45.923212	65.068260	2.623127	8.252502	18.367983	-4.650941	70.181095	50.390625	62.253958	6.450106	18.227395
0.060000	2.087936	-3.776689	93.746211	-0.008460	0.959774	0.526894	-0.221510	3.131936	-6.245687	0.274989	0.004799	8.211487	-0.673591	0.000000	1.065143	-5.717350	15.789343	0.522600	0.009121	9.225270	-3.061050	0.000000	0.164974	0.404635	1.053242	0.306373	0.538164	1.119069	0.271036	0.983829	1.119069	0.188549	0.983829	0.921586	0.153195	0.825131	0.855759	0.094266	0.626779	0.789931	1.178392	4.577309	5.857814	0.000000	0.000000	27.902564	-4.068933	-1.433973	13.906801	-8.004596	74.288477	46.908439	75.747305	5.519104	9.263229	18.221614	-5.287461	70.987218	51.181679	62.277513	5.453758	18.900193
0.080000	2.238502	-3.604569	94.304312	-0.008691	0.959789	0.526382	-0.398293	3.318157	-5.443344	0.258506	0.004512	8.484269	-2.099219	0.000000	0.940565	-5.909545	16.296716	0.439546	0.007672	10.141942	-3.021901	0.000000	0.155367	0.417631	1.049085	0.288531	0.555449	1.114653	0.255252	1.015428	1.114653	0.177568	1.015428	0.917950	0.144273	0.851633	0.852382	0.088776	0.646910	0.786814	1.109768	4.724326	5.834698	0.000000	0.000000	27.919681	-4.504775	-2.167651	13.429965	-8.115256	72.438277	47.714480	83.863682	7.864575	10.044677	18.071251	-5.810035	71.576248	51.873058	61.933844	4.245734	19.478991
0.100000	2.363024	-3.421661	94.704013	-0.008822	0.959756	0.526045	-0.596221	3.480942	-4.870474	0.247093	0.004313	8.654238	-3.089819	0.000000	0.782203	-6.070169	16.776607	0.372756	0.006506	10.757714	-3.180099	0.000000	0.143432	0.429639	1.037377	0.266368	0.571419	1.102213	0.235645	1.044623	1.102213	0.163929	1.044623	0.907705	0.133191	0.876119	0.842869	0.081957	0.665510	0.778033	1.024524	4.860159	5.769578	0.000000	0.000000	27.915024	-4.779063	-2.626229	13.128012	-8.217709	70.989923	48.359830	89.672833	9.710666	10.633488	17.915934	-6.228088	71.952851	52.474239	61.320935	2.893282	19.975476
0.120000	2.461593	-3.233902	94.962711	-0.008873	0.959681	0.525862	-0.807028	3.618586	-4.505573	0.240274	0.004194	8.736077	-3.692008	0.000000	0.599850	-6.198488	17.220470	0.321716	0.005615	11.114084	-3.498089	0.000000	0.129758	0.440450	1.018871	0.240974	0.585799	1.082551	0.213179	1.070910	1.082551	0.148300	1.070910	0.891512	0.120493	0.898166	0.827833	0.074144	0.682257	0.764154	0.926849	4.982459	5.666657	0.000000	0.000000	27.891880	-4.911907	-2.843276	12.975993	-8.310788	69.887548	48.862986	93.430197	11.108502	11.066307	17.754701	-6.551045	72.121691	52.994702	60.536773	1.463649	20.401339
0.140000	2.534300	-3.047228	95.097804	-0.008863	0.959571	0.525814	-1.022449	3.729381	-4.327140	0.237574	0.004146	8.744468	-3.952405	0.000000	0.403302	-6.293768	17.619760	0.285910	0.004990	11.252547	-3.938318	0.000000	0.114930	0.449858	0.994325	0.213436	0.598311	1.056470	0.188818	1.093784	1.056470	0.131353	1.093784	0.870034	0.106724	0.917350	0.807889	0.065671	0.696829	0.745744	0.820932	5.088879	5.530137	0.000000	0.000000	27.853537	-4.923415	-2.852361	12.948963	-8.393322	69.075286	49.242442	95.391215	12.109210	11.379776	17.586589	-6.788330	72.087433	53.443925	59.679342	0.024083	20.768268
0.160000	2.581235	-2.867577	95.126690	-0.008813	0.959432	0.525882	-1.234220	3.811621	-4.313675	0.238517	0.004163	8.694094	-3.917628	0.000000	0.202352	-6.355277	17.965933	0.264824	0.004622	11.214600	-4.463233	0.000000	0.099534	0.457654	0.964493	0.184845	0.608679	1.024774	0.163525	1.112739	1.024774	0.113758	1.112739	0.843932	0.092428	0.933247	0.783651	0.056874	0.708906	0.723370	0.710964	5.177070	5.364222	0.000000	0.000000	27.803280	-4.833697	-2.687056	13.021975	-8.464143	68.497274	49.516695	95.811329	12.763913	11.610539	17.410637	-6.949371	71.854741	53.831387	58.846629	-1.358168	21.087953
0.180000	2.602490	-2.700886	95.066766	-0.008744	0.959270	0.526045	-1.434076	3.863598	-4.443675	0.242628	0.004235	8.599636	-3.634297	0.000000	0.006795	-6.382282	18.250442	0.257941	0.004502	11.041741	-5.035280	0.000000	0.084158	0.463631	0.930132	0.156290	0.616629	0.988265	0.138263	1.127272	0.988265	0.096184	1.127272	0.813865	0.078149	0.945436	0.755732	0.048088	0.718164	0.697599	0.601133	5.244685	5.173113	0.000000	0.000000	27.744396	-4.662860	-2.380930	13.170081	-8.522083	68.097644	49.704239	94.945978	13.123739	11.795238	17.225883	-7.043591	71.428280	54.166565	58.136618	-2.615856	21.372084
0.200000	2.598155	-2.553090	94.935431	-0.008676	0.959091	0.526286	-1.613753	3.883607	-4.695639	0.249430	0.004353	8.475778	-3.149029	0.000000	-0.173574	-6.374048	18.464743	0.264746	0.004621	10.775466	-5.616906	0.000000	0.069388	0.467581	0.891996	0.128860	0.621883	0.947746	0.113997	1.136878	0.947746	0.079303	1.136878	0.780497	0.064433	0.953492	0.724747	0.039648	0.724284	0.668997	0.495629	5.289375	4.961014	0.000000	0.000000	27.680171	-4.431015	-1.967553	13.368335	-8.565974	67.820532	49.823570	93.050603	13.239812	11.970518	17.031366	-7.080415	70.812715	54.458938	57.647296	-3.681735	21.632349
0.220000	2.575941	-2.428738	94.777351	-0.008724	0.958984	0.526464	-1.770677	3.871385	-5.118587	0.259001	0.004520	8.391508	-2.411843	0.000000	-0.328499	-6.334715	18.610259	0.290501	0.005070	10.470761	-6.152899	0.000000	0.055219	0.471622	0.820825	0.102547	0.627257	0.872127	0.090719	1.146702	0.872127	0.063109	1.146702	0.718222	0.051276	0.961732	0.666921	0.031552	0.730543	0.615619	0.394422	5.335084	4.565185	0.000000	0.000000	27.601221	-4.088779	-1.257483	13.591179	-8.581830	67.533489	49.984193	89.103476	13.238410	12.340236	16.682681	-7.133073	69.737908	54.719236	57.979131	-4.366467	21.902536
0.240000	2.518118	-2.340561	94.607067	-0.008835	0.958863	0.526614	-1.891416	3.810501	-5.648124	0.269457	0.004703	8.334044	-1.572598	0.000000	-0.445716	-6.246521	18.632423	0.319528	0.005577	10.283272	-6.549316	0.000000	0.044582	0.471073	0.757567	0.082794	0.626528	0.804915	0.073244	1.145368	0.804915	0.050953	1.145368	0.662872	0.041399	0.960613	0.615524	0.025474	0.729693	0.568176	0.318446	5.328876	4.213363	0.000000	0.000000	27.535057	-3.759416	-0.622685	13.769807	-8.585742	67.215890	49.977438	85.835797	13.046673	13.077767	16.363059	-7.096960	68.487511	54.944361	58.991684	-4.389286	22.291827
0.260000	2.421172	-2.286244	94.421808	-0.008993	0.958741	0.526773	-1.971813	3.696802	-6.185266	0.279850	0.004884	8.291111	-0.751833	0.000000	-0.522590	-6.106036	18.532075	0.356173	0.006216	10.209903	-6.788865	0.000000	0.036113	0.465378	0.711727	0.067065	0.618953	0.756210	0.059330	1.131520	0.756210	0.041273	1.131520	0.622761	0.033534	0.948999	0.578278	0.020635	0.720871	0.533795	0.257950	5.264450	3.958414	0.000000	0.000000	27.484552	-3.483672	-0.133055	13.886953	-8.558167	66.816974	49.945051	83.878601	12.615963	13.747714	16.133421	-6.993719	67.190452	55.134348	60.466488	-3.837804	22.778364
0.280000	2.288357	-2.270414	94.230430	-0.009200	0.958618	0.526975	-2.000096	3.533464	-6.723629	0.289502	0.005053	8.286589	0.047503	0.000000	-0.547798	-5.916761	18.292748	0.403429	0.007041	10.250248	-6.813000	0.000000	0.029786	0.454840	0.688577	0.055316	0.604938	0.731613	0.048936	1.105899	0.731613	0.034043	1.105899	0.602505	0.027660	0.927511	0.559469	0.017020	0.704548	0.516433	0.212760	5.145246	3.829657	0.000000	0.000000	27.451436	-3.294269	0.167099	13.925457	-8.526075	66.417771	49.954066	81.631316	11.884297	14.437403	16.040118	-6.846224	66.002695	55.307621	62.225275	-2.816823	23.307409
0.300000	2.123480	-2.310737	94.045550	-0.009451	0.958483	0.527247	-1.951043	3.326504	-7.203956	0.297138	0.005186	8.297386	0.701763	0.000000	-0.498114	-5.683362	17.899363	0.462124	0.008066	10.370250	-6.574604	0.000000	0.027908	0.439421	0.683227	0.051827	0.584430	0.725929	0.045849	1.068407	0.725929	0.031896	1.068407	0.597824	0.025915	0.896067	0.555122	0.015946	0.680663	0.512421	0.199341	4.970815	3.799906	0.000000	0.000000	27.436423	-3.212049	0.263494	13.843064	-8.481634	65.809155	50.022677	79.306936	11.174017	15.112732	16.023155	-6.695734	64.868037	55.514670	64.422793	-1.473734	23.858289
